<svg xmlns="http://www.w3.org/2000/svg" viewBox="0 0 294.45 287.46"><defs><style>.cls-1{fill:#be1622;}.cls-1,.cls-2{stroke:#1d1d1b;stroke-miterlimit:10;stroke-width:4px;}.cls-2{fill:none;}</style></defs><title>Risorsa 5</title><g id="Livello_2" data-name="Livello 2"><g id="Livello_1-2" data-name="Livello 1"><path class="cls-1" d="M2,112.85c-.1,7.94,1.79,16.66,5,25.12,6.38,16.69,16.25,31.33,28.43,44.09q32.51,34,66.31,66.79a147.93,147.93,0,0,0,42.8,29.51c18,8,36.36,9.79,55,2.48,17.65-6.93,31.95-18.53,44.19-32.79a31.76,31.76,0,0,0,4-6.39,17.64,17.64,0,0,0-5.12-22.56c-13.05-10.06-25.94-20.35-39.33-29.95-8.85-6.34-18.45-6.64-26.28,1.91a109.25,109.25,0,0,1-8.31,8.36c-11.6,10.21-24.93,11.79-38.36,4.23a60.68,60.68,0,0,1-11.85-8.89c-8.88-8.46-17.66-17.06-26-26.06a63.84,63.84,0,0,1-10.22-14.62c-5.48-10.94-4.42-21.87,2.79-31.76,3.17-4.35,7.17-8.13,11.07-11.89,7.9-7.63,9.2-16.07,2.08-26.26-9.6-13.72-20.14-26.79-30.46-40A17.28,17.28,0,0,0,53.9,37.44c-6.22-.07-11.07,3.2-15.56,6.89A116.15,116.15,0,0,0,17.7,67.23C8.27,80.54,2,95,2,112.85Z"/><path class="cls-2" d="M141.58,2c67-.43,128.24,46.66,145.6,111.88a154.32,154.32,0,0,1,5.26,34.31c0,1.68,0,3.37,0,5.06"/><path class="cls-2" d="M140.61,42.48A92.24,92.24,0,0,1,167,45.61c44.65,12.44,72.28,41.37,82.85,86.46,1.32,5.61,1.6,11.46,2.37,17.2l-.26,0v3.93"/></g></g></svg>