<svg xmlns="http://www.w3.org/2000/svg" viewBox="0 0 316.28 287.46"><defs><style>.cls-1{fill:#be1622;stroke:#1d1d1b;stroke-miterlimit:10;stroke-width:4px;}</style></defs><title>Risorsa 2</title><g id="Livello_2" data-name="Livello 2"><g id="Livello_1-2" data-name="Livello 1"><path class="cls-1" d="M264.25,106.91a12.94,12.94,0,0,0-3.5-8.33c-32.53-31.35-65.29-62.45-97.88-93.74-3.68-3.53-6.3-4-10.21-.21C119.94,36.07,87,67.32,54.33,98.78A11.26,11.26,0,0,0,51.09,106c-.18,57.45-.1,114.89-.22,172.33,0,5.38,2,7.19,7.27,7.12,16.55-.19,33.11-.07,49.67-.07,9.35,0,9.39,0,9.39-9.15q0-56.71,0-113.45c0-7.85,2-9.86,9.66-9.87q30.34,0,60.71,0c8.92,0,10.56,1.69,10.57,10.82V276.57c0,8.54.26,8.81,8.49,8.82q24.84,0,49.68,0c7.57,0,8.07-.49,8.08-8q0-42.63,0-85.25C264.4,163.74,264.5,135.32,264.25,106.91Z"/><line class="cls-1" x1="54.33" y1="98.78" x2="1.38" y2="149.41"/><line class="cls-1" x1="314.91" y1="149.41" x2="260.75" y2="98.58"/></g></g></svg>