<svg xmlns="http://www.w3.org/2000/svg" viewBox="0 0 262.72 287.46"><defs><style>.cls-1{fill:#be1622;stroke:#1d1d1b;stroke-miterlimit:10;stroke-width:4px;}</style></defs><title>Risorsa 7</title><g id="Livello_2" data-name="Livello 2"><g id="Livello_1-2" data-name="Livello 1"><path class="cls-1" d="M240.73,211.29c-7.61-.44-12.94-6-13-13.76-.05-4.13,0-8.26,0-12.39-.23-21.09,1.07-42.34-1.05-63.24-4.15-40.81-27.15-67.86-65.47-82-2.52-.94-5.15-1.59-7.85-2.41,0-4.73.13-9.16,0-13.58C152.85,11.59,143.08,2,131.23,2s-21.58,9.71-22,22c-.13,4.42,0,8.85,0,13.35a23.25,23.25,0,0,1-2.66,1.06C68.46,47.86,34,84,34.83,135.22c.33,20.64.08,41.29,0,61.93,0,8.23-5.34,13.51-13.59,14.24a26.17,26.17,0,0,0-9.18,2.42,18.53,18.53,0,0,0-9.52,21.24c2.29,9.22,9.7,14.8,20,14.8l108.73,0,108.74,0c11.7,0,20.4-8.11,20.65-18.94S252.59,212,240.73,211.29Z"/><path class="cls-1" d="M132.15,285.45c19.23-.61,35.51-17.27,34.56-35.58H95.63C96.18,270.21,112.69,286.07,132.15,285.45Z"/></g></g></svg>