<svg xmlns="http://www.w3.org/2000/svg" viewBox="0 0 225.9 287.46"><defs><style>.cls-1{fill:#be1622;}.cls-1,.cls-2{stroke:#1d1d1b;stroke-miterlimit:10;stroke-width:4px;}.cls-2{fill:none;}</style></defs><title>Risorsa 3</title><g id="Livello_2" data-name="Livello 2"><g id="Livello_1-2" data-name="Livello 1"><path class="cls-1" d="M197.68,76.11C192.49,36.67,160.49,5,120.84,2.26,84.45-.23,56.51,15,38.36,46.65c-9.17,16-13.4,33.71-8.87,52A200.42,200.42,0,0,0,42.3,134.17C60,172.4,83,207.47,107.07,241.9c1.94,2.77,4,5.47,6.48,9,10.51-15.77,20.77-30.71,30.55-46,17.14-26.73,33.47-53.94,45.52-83.45C195.55,107,199.81,92.24,197.68,76.11ZM113.33,137A49.84,49.84,0,0,1,63.68,86.46c.18-26.87,22.7-48.86,49.88-48.73A49.61,49.61,0,0,1,163,88C162.88,114.79,140.32,137.05,113.33,137Z"/><path class="cls-2" d="M82.27,228.81C35.92,232.28,2,243.4,2,256.58c0,15.95,49.67,28.88,111,28.88s111-12.93,111-28.88c0-13.14-33.69-24.23-79.81-27.73"/></g></g></svg>