<svg xmlns="http://www.w3.org/2000/svg" viewBox="0 0 287.73 287.72"><defs><style>.cls-1{fill:#be1622;stroke:#1d1d1b;stroke-miterlimit:10;stroke-width:4px;}</style></defs><title>Risorsa 6</title><g id="Livello_2" data-name="Livello 2"><g id="Livello_1-2" data-name="Livello 1"><path class="cls-1" d="M254.39,88,198.77,32.85Z"/><path class="cls-1" d="M285.26,35.78c-4.12-28.65-37.58-43.61-61.07-26.6-9.31,6.75-17,15.73-25.42,23.67L254.39,88c7.14-6.83,15-13.57,21.93-21.18C284.19,58.15,287,47.54,285.26,35.78Z"/><path class="cls-1" d="M22.64,209.5a8.84,8.84,0,0,0-2.16,4Q11.68,247.9,3,282.37c-.24.95-.36,1.93-.57,3.09a18.55,18.55,0,0,0,2-.2c23.08-5.86,46.17-11.7,69.22-17.68a12.45,12.45,0,0,0,5.43-3.09C134.65,209,254.39,88,254.39,88L198.77,32.85S79,153.06,22.64,209.5Z"/></g></g></svg>